<svg xmlns="http://www.w3.org/2000/svg" width="32.578" height="32" viewBox="0 0 32.578 32">
  <path id="Color_Dropper-595b40b75ba036ed117d7b64" data-name="Color Dropper-595b40b75ba036ed117d7b64" d="M29.022,2.4c-1.376,0-2.948-.052-4,1l-4,4-1-1-2,2,1,1-11,11a9.3,9.3,0,0,0-2,3,8.11,8.11,0,0,0-1,2c-.084.535.239.523,0,1a12.652,12.652,0,0,1-2,3h0c-.264.278-1,.406-1,1,0,.62.728.728,1,1l2,2c.272.272.38,1,1,1a4.236,4.236,0,0,0,2-1c1.146-1.108,1.534-.762,2-1s.477-.916,1-1,1.094.488,2,0a21.06,21.06,0,0,0,4-3l10-10h1l2-2-1-1,4-4a5.859,5.859,0,0,0,0-8C31.97,2.347,30.4,2.4,29.022,2.4Zm-8,9,4,4-11,11h0c-1.187,1.142-1.491,1.726-2,2s-.512-.078-1,0a14.421,14.421,0,0,0-3,1,7.485,7.485,0,0,0-2,1h0a7.184,7.184,0,0,0,1-2,10.521,10.521,0,0,0,1-2c.078-.5-.276-1.494,0-2s.81-.81,2-2Z" transform="translate(-2.022 -2.398)" fill="#4e4d55"/>
</svg>
