<svg xmlns="http://www.w3.org/2000/svg" width="28.401" height="28.395" viewBox="0 0 28.401 28.395">
  <path id="instagram" d="M14.129,38.742a7.28,7.28,0,1,0,7.28,7.28A7.269,7.269,0,0,0,14.129,38.742Zm0,12.013a4.733,4.733,0,1,1,4.733-4.733A4.742,4.742,0,0,1,14.129,50.756ZM23.4,38.445a1.7,1.7,0,1,1-1.7-1.7A1.694,1.694,0,0,1,23.4,38.445Zm4.822,1.723a8.4,8.4,0,0,0-2.294-5.95,8.459,8.459,0,0,0-5.95-2.294c-2.344-.133-9.371-.133-11.715,0a8.446,8.446,0,0,0-5.95,2.287,8.431,8.431,0,0,0-2.294,5.95c-.133,2.344-.133,9.371,0,11.715a8.4,8.4,0,0,0,2.294,5.95,8.469,8.469,0,0,0,5.95,2.294c2.344.133,9.371.133,11.715,0a8.4,8.4,0,0,0,5.95-2.294,8.459,8.459,0,0,0,2.294-5.95C28.36,49.533,28.36,42.512,28.227,40.168ZM25.2,54.393a4.792,4.792,0,0,1-2.7,2.7c-1.869.741-6.3.57-8.37.57s-6.507.165-8.37-.57a4.792,4.792,0,0,1-2.7-2.7c-.741-1.869-.57-6.3-.57-8.37s-.165-6.507.57-8.37a4.792,4.792,0,0,1,2.7-2.7c1.869-.741,6.3-.57,8.37-.57s6.507-.165,8.37.57a4.792,4.792,0,0,1,2.7,2.7c.741,1.869.57,6.3.57,8.37S25.939,52.53,25.2,54.393Z" transform="translate(0.075 -31.825)"/>
</svg>
