<svg xmlns="http://www.w3.org/2000/svg" width="30.097" height="24.445" viewBox="0 0 30.097 24.445">
  <path id="twitter" d="M27,54.174c.019.267.019.535.019.8,0,8.155-6.207,17.55-17.55,17.55A17.431,17.431,0,0,1,0,69.758a12.762,12.762,0,0,0,1.49.076A12.354,12.354,0,0,0,9.148,67.2,6.179,6.179,0,0,1,3.38,62.921a7.779,7.779,0,0,0,1.165.1,6.524,6.524,0,0,0,1.623-.21,6.169,6.169,0,0,1-4.946-6.054v-.076a6.212,6.212,0,0,0,2.788.783,6.178,6.178,0,0,1-1.91-8.25,17.534,17.534,0,0,0,12.719,6.455,6.964,6.964,0,0,1-.153-1.413A6.174,6.174,0,0,1,25.342,50.03a12.144,12.144,0,0,0,3.915-1.49,6.152,6.152,0,0,1-2.712,3.4,12.366,12.366,0,0,0,3.552-.955A13.26,13.26,0,0,1,27,54.174Z" transform="translate(0 -48.082)"/>
</svg>
